<mxfile host="Electron" modified="2024-05-30T23:44:50.823Z" agent="Mozilla/5.0 (Macintosh; Intel Mac OS X 10_15_7) AppleWebKit/537.36 (KHTML, like Gecko) draw.io/24.4.6 Chrome/124.0.6367.207 Electron/30.0.6 Safari/537.36" etag="vnpOUbxmoxKzFCT-LnS5" version="24.4.6" type="device" pages="2">
  <diagram name="Page-1" id="gis2F6vI3iiEjei4ZiWF">
    <mxGraphModel dx="1736" dy="1129" grid="1" gridSize="10" guides="1" tooltips="1" connect="1" arrows="1" fold="1" page="1" pageScale="1" pageWidth="850" pageHeight="1100" math="0" shadow="0">
      <root>
        <mxCell id="0" />
        <mxCell id="1" parent="0" />
        <mxCell id="c2CSxlqOi3twcUYSLvSN-1" value="" style="verticalLabelPosition=bottom;html=1;verticalAlign=top;strokeWidth=1;align=center;outlineConnect=0;dashed=0;outlineConnect=0;shape=mxgraph.aws3d.end_user;strokeColor=none;fillColor=#777777;aspect=fixed;" vertex="1" parent="1">
          <mxGeometry x="60" y="180" width="49" height="100.46" as="geometry" />
        </mxCell>
        <mxCell id="c2CSxlqOi3twcUYSLvSN-5" style="edgeStyle=orthogonalEdgeStyle;rounded=0;orthogonalLoop=1;jettySize=auto;html=1;" edge="1" parent="1" source="c2CSxlqOi3twcUYSLvSN-2" target="c2CSxlqOi3twcUYSLvSN-3">
          <mxGeometry relative="1" as="geometry" />
        </mxCell>
        <mxCell id="c2CSxlqOi3twcUYSLvSN-2" value="" style="image;points=[];aspect=fixed;html=1;align=center;shadow=0;dashed=0;image=img/lib/allied_telesis/computer_and_terminals/Personal_Computer.svg;" vertex="1" parent="1">
          <mxGeometry x="100" y="162.89" width="65.6" height="88.91" as="geometry" />
        </mxCell>
        <mxCell id="c2CSxlqOi3twcUYSLvSN-8" style="edgeStyle=orthogonalEdgeStyle;rounded=0;orthogonalLoop=1;jettySize=auto;html=1;entryX=0.5;entryY=0;entryDx=0;entryDy=0;" edge="1" parent="1" source="c2CSxlqOi3twcUYSLvSN-3" target="c2CSxlqOi3twcUYSLvSN-7">
          <mxGeometry relative="1" as="geometry" />
        </mxCell>
        <mxCell id="c2CSxlqOi3twcUYSLvSN-3" value="&lt;font style=&quot;font-size: 24px;&quot;&gt;Input Query/String&lt;/font&gt;" style="strokeWidth=1;html=1;shadow=0;dashed=0;shape=mxgraph.ios.iTextInput;strokeColor=#444444;buttonText=;fontSize=8;whiteSpace=wrap;align=left;" vertex="1" parent="1">
          <mxGeometry x="280" y="177.34" width="280" height="60" as="geometry" />
        </mxCell>
        <mxCell id="c2CSxlqOi3twcUYSLvSN-12" style="edgeStyle=orthogonalEdgeStyle;rounded=0;orthogonalLoop=1;jettySize=auto;html=1;" edge="1" parent="1" source="c2CSxlqOi3twcUYSLvSN-6" target="c2CSxlqOi3twcUYSLvSN-13">
          <mxGeometry relative="1" as="geometry">
            <mxPoint x="800" y="395" as="targetPoint" />
          </mxGeometry>
        </mxCell>
        <mxCell id="c2CSxlqOi3twcUYSLvSN-6" value="" style="shape=datastore;whiteSpace=wrap;html=1;" vertex="1" parent="1">
          <mxGeometry x="610" y="345" width="100" height="100" as="geometry" />
        </mxCell>
        <mxCell id="c2CSxlqOi3twcUYSLvSN-10" style="edgeStyle=orthogonalEdgeStyle;rounded=0;orthogonalLoop=1;jettySize=auto;html=1;entryX=0;entryY=0.5;entryDx=0;entryDy=0;" edge="1" parent="1" source="c2CSxlqOi3twcUYSLvSN-7" target="c2CSxlqOi3twcUYSLvSN-6">
          <mxGeometry relative="1" as="geometry" />
        </mxCell>
        <mxCell id="c2CSxlqOi3twcUYSLvSN-7" value="Embeds queryÂ " style="shape=image;verticalLabelPosition=bottom;labelBackgroundColor=default;verticalAlign=top;aspect=fixed;imageAspect=0;image=https://static-00.iconduck.com/assets.00/openai-icon-2021x2048-4rpe5x7n.png;fontSize=24;" vertex="1" parent="1">
          <mxGeometry x="365.74" y="340" width="108.53" height="110" as="geometry" />
        </mxCell>
        <mxCell id="c2CSxlqOi3twcUYSLvSN-11" value="VectorDB&lt;div&gt;Lookup&lt;/div&gt;" style="text;html=1;align=center;verticalAlign=middle;whiteSpace=wrap;rounded=0;fontSize=24;" vertex="1" parent="1">
          <mxGeometry x="630" y="460" width="60" height="30" as="geometry" />
        </mxCell>
        <mxCell id="c2CSxlqOi3twcUYSLvSN-13" value="Top N Results" style="swimlane;fontStyle=0;childLayout=stackLayout;horizontal=1;startSize=30;horizontalStack=0;resizeParent=1;resizeParentMax=0;resizeLast=0;collapsible=1;marginBottom=0;whiteSpace=wrap;html=1;" vertex="1" parent="1">
          <mxGeometry x="790" y="335" width="140" height="120" as="geometry" />
        </mxCell>
        <mxCell id="c2CSxlqOi3twcUYSLvSN-14" value="Item 1" style="text;strokeColor=none;fillColor=none;align=left;verticalAlign=middle;spacingLeft=4;spacingRight=4;overflow=hidden;points=[[0,0.5],[1,0.5]];portConstraint=eastwest;rotatable=0;whiteSpace=wrap;html=1;" vertex="1" parent="c2CSxlqOi3twcUYSLvSN-13">
          <mxGeometry y="30" width="140" height="30" as="geometry" />
        </mxCell>
        <mxCell id="c2CSxlqOi3twcUYSLvSN-15" value="Item 2" style="text;strokeColor=none;fillColor=none;align=left;verticalAlign=middle;spacingLeft=4;spacingRight=4;overflow=hidden;points=[[0,0.5],[1,0.5]];portConstraint=eastwest;rotatable=0;whiteSpace=wrap;html=1;" vertex="1" parent="c2CSxlqOi3twcUYSLvSN-13">
          <mxGeometry y="60" width="140" height="30" as="geometry" />
        </mxCell>
        <mxCell id="c2CSxlqOi3twcUYSLvSN-16" value="Item 3" style="text;strokeColor=none;fillColor=none;align=left;verticalAlign=middle;spacingLeft=4;spacingRight=4;overflow=hidden;points=[[0,0.5],[1,0.5]];portConstraint=eastwest;rotatable=0;whiteSpace=wrap;html=1;" vertex="1" parent="c2CSxlqOi3twcUYSLvSN-13">
          <mxGeometry y="90" width="140" height="30" as="geometry" />
        </mxCell>
        <mxCell id="c2CSxlqOi3twcUYSLvSN-25" style="edgeStyle=orthogonalEdgeStyle;rounded=0;orthogonalLoop=1;jettySize=auto;html=1;" edge="1" parent="1" source="c2CSxlqOi3twcUYSLvSN-23">
          <mxGeometry relative="1" as="geometry">
            <mxPoint x="1094.2649999999999" y="270" as="targetPoint" />
          </mxGeometry>
        </mxCell>
        <mxCell id="c2CSxlqOi3twcUYSLvSN-23" value="GPT w/ Augmented Info" style="shape=image;verticalLabelPosition=bottom;labelBackgroundColor=default;verticalAlign=top;aspect=fixed;imageAspect=0;image=https://static-00.iconduck.com/assets.00/openai-icon-2021x2048-4rpe5x7n.png;fontSize=24;" vertex="1" parent="1">
          <mxGeometry x="1040" y="345" width="108.53" height="110" as="geometry" />
        </mxCell>
        <mxCell id="c2CSxlqOi3twcUYSLvSN-24" style="edgeStyle=orthogonalEdgeStyle;rounded=0;orthogonalLoop=1;jettySize=auto;html=1;entryX=1.007;entryY=0.167;entryDx=0;entryDy=0;entryPerimeter=0;startArrow=classicThin;startFill=1;endArrow=none;endFill=0;" edge="1" parent="1" source="c2CSxlqOi3twcUYSLvSN-23" target="c2CSxlqOi3twcUYSLvSN-15">
          <mxGeometry relative="1" as="geometry" />
        </mxCell>
        <mxCell id="c2CSxlqOi3twcUYSLvSN-27" style="edgeStyle=orthogonalEdgeStyle;rounded=0;orthogonalLoop=1;jettySize=auto;html=1;" edge="1" parent="1" source="c2CSxlqOi3twcUYSLvSN-26" target="c2CSxlqOi3twcUYSLvSN-2">
          <mxGeometry relative="1" as="geometry">
            <Array as="points">
              <mxPoint x="150" y="140" />
            </Array>
          </mxGeometry>
        </mxCell>
        <mxCell id="c2CSxlqOi3twcUYSLvSN-26" value="This is our enhanced, and better informed response from LLM" style="html=1;shadow=0;dashed=0;shape=mxgraph.bootstrap.rrect;rSize=5;strokeColor=#999999;strokeWidth=2;fillColor=#FFFFFF;fontColor=#6C767D;whiteSpace=wrap;align=left;verticalAlign=middle;spacingLeft=10;fontSize=14;spacing=10;" vertex="1" parent="1">
          <mxGeometry x="1009.26" y="100" width="170" height="160" as="geometry" />
        </mxCell>
        <mxCell id="c2CSxlqOi3twcUYSLvSN-29" value="Sorted Results" style="text;html=1;align=center;verticalAlign=middle;whiteSpace=wrap;rounded=0;fontSize=24;" vertex="1" parent="1">
          <mxGeometry x="830" y="470" width="60" height="30" as="geometry" />
        </mxCell>
      </root>
    </mxGraphModel>
  </diagram>
  <diagram id="H6DZWITu3GjCFTC3TmLE" name="Page-2">
    <mxGraphModel dx="1736" dy="1129" grid="1" gridSize="10" guides="1" tooltips="1" connect="1" arrows="1" fold="1" page="1" pageScale="1" pageWidth="850" pageHeight="1100" math="0" shadow="0">
      <root>
        <mxCell id="0" />
        <mxCell id="1" parent="0" />
        <mxCell id="fN_AiSdAXCAJ68zrSfng-1" value="" style="verticalLabelPosition=bottom;html=1;verticalAlign=top;strokeWidth=1;align=center;outlineConnect=0;dashed=0;outlineConnect=0;shape=mxgraph.aws3d.end_user;strokeColor=none;fillColor=#777777;aspect=fixed;" vertex="1" parent="1">
          <mxGeometry x="60" y="180" width="49" height="100.46" as="geometry" />
        </mxCell>
        <mxCell id="fN_AiSdAXCAJ68zrSfng-2" style="edgeStyle=orthogonalEdgeStyle;rounded=0;orthogonalLoop=1;jettySize=auto;html=1;" edge="1" parent="1" source="fN_AiSdAXCAJ68zrSfng-3" target="fN_AiSdAXCAJ68zrSfng-5">
          <mxGeometry relative="1" as="geometry" />
        </mxCell>
        <mxCell id="fN_AiSdAXCAJ68zrSfng-3" value="" style="image;points=[];aspect=fixed;html=1;align=center;shadow=0;dashed=0;image=img/lib/allied_telesis/computer_and_terminals/Personal_Computer.svg;" vertex="1" parent="1">
          <mxGeometry x="100" y="162.89" width="65.6" height="88.91" as="geometry" />
        </mxCell>
        <mxCell id="fN_AiSdAXCAJ68zrSfng-4" style="edgeStyle=orthogonalEdgeStyle;rounded=0;orthogonalLoop=1;jettySize=auto;html=1;entryX=0.5;entryY=0;entryDx=0;entryDy=0;" edge="1" parent="1" source="fN_AiSdAXCAJ68zrSfng-5" target="fN_AiSdAXCAJ68zrSfng-9">
          <mxGeometry relative="1" as="geometry" />
        </mxCell>
        <mxCell id="fN_AiSdAXCAJ68zrSfng-5" value="&lt;font style=&quot;font-size: 24px;&quot;&gt;Input Query/String&lt;/font&gt;" style="strokeWidth=1;html=1;shadow=0;dashed=0;shape=mxgraph.ios.iTextInput;strokeColor=#444444;buttonText=;fontSize=8;whiteSpace=wrap;align=left;" vertex="1" parent="1">
          <mxGeometry x="280" y="177.34" width="280" height="60" as="geometry" />
        </mxCell>
        <mxCell id="fN_AiSdAXCAJ68zrSfng-6" style="edgeStyle=orthogonalEdgeStyle;rounded=0;orthogonalLoop=1;jettySize=auto;html=1;" edge="1" parent="1" source="fN_AiSdAXCAJ68zrSfng-7">
          <mxGeometry relative="1" as="geometry">
            <mxPoint x="790" y="395" as="targetPoint" />
          </mxGeometry>
        </mxCell>
        <mxCell id="fN_AiSdAXCAJ68zrSfng-7" value="" style="shape=datastore;whiteSpace=wrap;html=1;" vertex="1" parent="1">
          <mxGeometry x="610" y="345" width="100" height="100" as="geometry" />
        </mxCell>
        <mxCell id="fN_AiSdAXCAJ68zrSfng-8" style="edgeStyle=orthogonalEdgeStyle;rounded=0;orthogonalLoop=1;jettySize=auto;html=1;entryX=0;entryY=0.5;entryDx=0;entryDy=0;" edge="1" parent="1" source="fN_AiSdAXCAJ68zrSfng-9" target="fN_AiSdAXCAJ68zrSfng-7">
          <mxGeometry relative="1" as="geometry" />
        </mxCell>
        <mxCell id="fN_AiSdAXCAJ68zrSfng-9" value="Embeds queryÂ " style="shape=image;verticalLabelPosition=bottom;labelBackgroundColor=default;verticalAlign=top;aspect=fixed;imageAspect=0;image=https://static-00.iconduck.com/assets.00/openai-icon-2021x2048-4rpe5x7n.png;fontSize=24;" vertex="1" parent="1">
          <mxGeometry x="365.74" y="340" width="108.53" height="110" as="geometry" />
        </mxCell>
        <mxCell id="ETxC_6iFpVtDtU9ilW1s-1" value="Top N Results" style="swimlane;fontStyle=0;childLayout=stackLayout;horizontal=1;startSize=30;horizontalStack=0;resizeParent=1;resizeParentMax=0;resizeLast=0;collapsible=1;marginBottom=0;whiteSpace=wrap;html=1;" vertex="1" parent="1">
          <mxGeometry x="790" y="335" width="140" height="120" as="geometry" />
        </mxCell>
        <mxCell id="ETxC_6iFpVtDtU9ilW1s-2" value="Item 1" style="text;strokeColor=none;fillColor=none;align=left;verticalAlign=middle;spacingLeft=4;spacingRight=4;overflow=hidden;points=[[0,0.5],[1,0.5]];portConstraint=eastwest;rotatable=0;whiteSpace=wrap;html=1;" vertex="1" parent="ETxC_6iFpVtDtU9ilW1s-1">
          <mxGeometry y="30" width="140" height="30" as="geometry" />
        </mxCell>
        <mxCell id="ETxC_6iFpVtDtU9ilW1s-3" value="Item 2" style="text;strokeColor=none;fillColor=none;align=left;verticalAlign=middle;spacingLeft=4;spacingRight=4;overflow=hidden;points=[[0,0.5],[1,0.5]];portConstraint=eastwest;rotatable=0;whiteSpace=wrap;html=1;" vertex="1" parent="ETxC_6iFpVtDtU9ilW1s-1">
          <mxGeometry y="60" width="140" height="30" as="geometry" />
        </mxCell>
        <mxCell id="ETxC_6iFpVtDtU9ilW1s-4" value="Item 3" style="text;strokeColor=none;fillColor=none;align=left;verticalAlign=middle;spacingLeft=4;spacingRight=4;overflow=hidden;points=[[0,0.5],[1,0.5]];portConstraint=eastwest;rotatable=0;whiteSpace=wrap;html=1;" vertex="1" parent="ETxC_6iFpVtDtU9ilW1s-1">
          <mxGeometry y="90" width="140" height="30" as="geometry" />
        </mxCell>
        <mxCell id="ETxC_6iFpVtDtU9ilW1s-5" value="Sorted Results" style="text;html=1;align=center;verticalAlign=middle;whiteSpace=wrap;rounded=0;fontSize=24;" vertex="1" parent="1">
          <mxGeometry x="830" y="470" width="60" height="30" as="geometry" />
        </mxCell>
        <mxCell id="ETxC_6iFpVtDtU9ilW1s-6" style="edgeStyle=orthogonalEdgeStyle;rounded=0;orthogonalLoop=1;jettySize=auto;html=1;entryX=0.427;entryY=0.012;entryDx=0;entryDy=0;entryPerimeter=0;" edge="1" parent="1" source="ETxC_6iFpVtDtU9ilW1s-1" target="fN_AiSdAXCAJ68zrSfng-3">
          <mxGeometry relative="1" as="geometry">
            <Array as="points">
              <mxPoint x="860" y="130" />
              <mxPoint x="128" y="130" />
            </Array>
          </mxGeometry>
        </mxCell>
        <mxCell id="Q5Mo7FJSSETBbJSqa2ht-1" value="VectorDB&lt;div&gt;Lookup&lt;/div&gt;" style="text;html=1;align=center;verticalAlign=middle;whiteSpace=wrap;rounded=0;fontSize=24;" vertex="1" parent="1">
          <mxGeometry x="630" y="460" width="60" height="30" as="geometry" />
        </mxCell>
        <mxCell id="Q5Mo7FJSSETBbJSqa2ht-2" value="" style="shape=image;verticalLabelPosition=bottom;labelBackgroundColor=default;verticalAlign=top;aspect=fixed;imageAspect=0;image=https://static-00.iconduck.com/assets.00/openai-icon-2021x2048-4rpe5x7n.png;fontSize=24;" vertex="1" parent="1">
          <mxGeometry x="380" y="570" width="108.53" height="110" as="geometry" />
        </mxCell>
      </root>
    </mxGraphModel>
  </diagram>
</mxfile>
